<?xml version="1.0" standalone="no"?>
<!DOCTYPE svg PUBLIC "-//W3C//DTD SVG 20010904//EN"
 "http://www.w3.org/TR/2001/REC-SVG-20010904/DTD/svg10.dtd">
<svg version="1.0" xmlns="http://www.w3.org/2000/svg"
 width="1024.000000pt" height="1024.000000pt" viewBox="0 0 1024.000000 1024.000000"
 preserveAspectRatio="xMidYMid meet">
<metadata>
Created by potrace 1.11, written by Peter Selinger 2001-2013
</metadata>
<g transform="translate(0.000000,1024.000000) scale(0.100000,-0.100000)"
fill="#000000" stroke="none">
<path d="M4848 10165 c-2 -2 -44 -6 -93 -10 -101 -6 -178 -14 -215 -20 -14 -2
-47 -7 -75 -10 -124 -15 -276 -41 -390 -66 -49 -12 -99 -23 -110 -25 -11 -2
-78 -20 -150 -39 -71 -20 -137 -37 -145 -39 -48 -12 -263 -86 -369 -128 -276
-109 -511 -223 -734 -357 -71 -42 -136 -80 -146 -86 -23 -13 -165 -108 -171
-115 -3 -3 -34 -25 -70 -49 -237 -163 -581 -468 -801 -712 -465 -517 -831
-1141 -1044 -1784 -36 -109 -111 -365 -119 -405 -2 -14 -14 -68 -26 -120 -27
-120 -25 -107 -44 -225 -28 -165 -37 -227 -51 -366 -26 -246 -26 -783 -1 -981
3 -18 7 -60 11 -93 7 -63 31 -229 40 -280 12 -62 15 -81 21 -114 3 -19 16 -79
29 -135 98 -428 246 -838 432 -1193 105 -202 142 -265 262 -454 81 -128 275
-390 361 -489 12 -14 42 -50 68 -80 182 -213 452 -467 708 -666 135 -106 499
-354 518 -354 4 0 23 -11 44 -23 154 -97 410 -221 717 -346 170 -70 492 -168
710 -216 114 -25 293 -58 380 -70 22 -3 54 -7 70 -10 27 -4 59 -7 180 -20 281
-30 803 -25 1050 10 22 3 63 8 90 11 28 3 61 7 75 10 14 2 43 7 65 9 22 3 47
8 55 10 8 3 34 7 56 10 60 7 342 71 448 101 379 108 810 287 1116 464 36 21
82 47 103 59 224 125 591 396 833 616 107 96 309 304 408 420 37 44 78 91 90
105 12 14 42 52 66 85 25 33 48 62 51 65 11 9 195 273 235 338 21 34 54 86 72
115 17 29 39 66 47 82 8 17 23 44 33 60 74 121 198 381 284 595 76 189 187
537 213 669 2 9 10 46 19 84 9 37 18 82 21 100 3 17 8 39 10 47 5 18 13 61 21
110 3 19 9 60 14 90 5 30 12 78 15 105 3 28 8 64 10 80 35 238 40 834 10 1072
-3 21 -7 56 -9 78 -12 123 -52 366 -86 515 -12 52 -23 106 -26 120 -33 160
-176 588 -265 789 -58 131 -79 175 -135 286 -335 664 -797 1228 -1385 1691
-70 54 -136 106 -149 114 -12 8 -47 33 -78 56 -287 206 -675 414 -1048 562
-178 71 -573 195 -689 216 -11 2 -72 15 -135 29 -63 14 -133 28 -155 31 -22 4
-51 8 -65 11 -14 3 -41 7 -60 9 -19 2 -55 7 -80 11 -25 3 -61 7 -80 9 -79 9
-158 17 -205 22 -57 6 -652 14 -657 9z"/>
</g>
</svg>
