<svg xmlns="http://www.w3.org/2000/svg" width="133" height="17"><g transform="translate(47 4)"><path d="M 3.5 1 C 5.433 1 7 2.567 7 4.5 C 7 6.433 5.433 8 3.5 8 C 1.567 8 0 6.433 0 4.5 C 0 2.567 1.567 1 3.5 1 Z" fill="#333333"></path><path d="M 19.5 0 C 21.985 0 24 2.015 24 4.5 C 24 6.985 21.985 9 19.5 9 C 17.015 9 15 6.985 15 4.5 C 15 2.015 17.015 0 19.5 0 Z" fill="#333333"></path><path d="M 35.5 1 C 37.433 1 39 2.567 39 4.5 C 39 6.433 37.433 8 35.5 8 C 33.567 8 32 6.433 32 4.5 C 32 2.567 33.567 1 35.5 1 Z" fill="#333333"></path></g></svg>