<svg xmlns="http://www.w3.org/2000/svg" width="314.944" height="30.016" viewBox="0 0 314.944 30.016">
  <path id="Path_1" data-name="Path 1" d="M33.856-3.168V0H24.544V-3.168h2.528V-8.576a3.54,3.54,0,0,0-.688-2.272,2.369,2.369,0,0,0-1.968-.864q-2.4,0-4.768,2.88v5.664h2.528V0H13.024V-3.168h2.624V-8.576a3.485,3.485,0,0,0-.7-2.272,2.451,2.451,0,0,0-2.016-.864,4.624,4.624,0,0,0-2.416.752A9.615,9.615,0,0,0,8.1-8.736v5.568h2.592V0H.9V-3.168H4.1V-11.9H.9v-3.168H8.1v3.1A10.074,10.074,0,0,1,11.04-14.56a6.779,6.779,0,0,1,3.36-.9,4.848,4.848,0,0,1,3.088.992,5.443,5.443,0,0,1,1.808,2.88,10.787,10.787,0,0,1,3.04-2.864,6.686,6.686,0,0,1,3.52-1.008A4.609,4.609,0,0,1,29.68-13.7,7.994,7.994,0,0,1,31.072-8.64v5.472ZM43.584.448a9.122,9.122,0,0,1-4.192-.992A7.987,7.987,0,0,1,36.256-3.36a7.471,7.471,0,0,1-1.184-4.16,7.471,7.471,0,0,1,1.184-4.16A7.987,7.987,0,0,1,39.392-14.5a9.122,9.122,0,0,1,4.192-.992,9.087,9.087,0,0,1,4.144.992A8.076,8.076,0,0,1,50.9-11.68a7.4,7.4,0,0,1,1.2,4.16,7.546,7.546,0,0,1-1.168,4.16,7.87,7.87,0,0,1-3.12,2.816A9.19,9.19,0,0,1,43.584.448Zm.032-3.168A4.059,4.059,0,0,0,46.7-4.032,4.889,4.889,0,0,0,47.936-7.52,4.889,4.889,0,0,0,46.7-11.008a4.059,4.059,0,0,0-3.088-1.312,4.1,4.1,0,0,0-3.12,1.312A4.889,4.889,0,0,0,39.264-7.52,4.889,4.889,0,0,0,40.5-4.032,4.1,4.1,0,0,0,43.616-2.72Zm32.8-.448V0H67.04V-3.168h2.624V-8.384a3.475,3.475,0,0,0-.816-2.432,2.979,2.979,0,0,0-2.32-.9q-2.432,0-5.248,3.2v5.344h2.592V0H54.08V-3.168h3.2V-11.9h-3.2v-3.168h7.2v3.456a14.547,14.547,0,0,1,3.312-2.9A6.543,6.543,0,0,1,68-15.456a5.107,5.107,0,0,1,4.208,1.792,8.163,8.163,0,0,1,1.456,5.248v5.248ZM82.368-17.92a3.075,3.075,0,0,1-1.984-.64,1.941,1.941,0,0,1-.8-1.568,2,2,0,0,1,.8-1.632,3.075,3.075,0,0,1,1.984-.64,3.11,3.11,0,0,1,2.032.64,2.015,2.015,0,0,1,.784,1.632,1.94,1.94,0,0,1-.784,1.584A3.164,3.164,0,0,1,82.368-17.92ZM84.64.544a8.1,8.1,0,0,1-.848,3.84A5.771,5.771,0,0,1,81.472,6.8a6.813,6.813,0,0,1-3.36.816,8.831,8.831,0,0,1-1.9-.176,12.342,12.342,0,0,1-1.376-.384q-.592-.208-.848-.3l.992-3.328a12.381,12.381,0,0,0,1.552.512,6,6,0,0,0,1.424.16,2.389,2.389,0,0,0,1.968-.9A4,4,0,0,0,80.64.64V-11.9H77.472v-3.168H84.64Zm12.352-.1A9.122,9.122,0,0,1,92.8-.544,7.987,7.987,0,0,1,89.664-3.36,7.471,7.471,0,0,1,88.48-7.52a7.471,7.471,0,0,1,1.184-4.16A7.987,7.987,0,0,1,92.8-14.5a9.122,9.122,0,0,1,4.192-.992,9.087,9.087,0,0,1,4.144.992A8.076,8.076,0,0,1,104.3-11.68a7.4,7.4,0,0,1,1.2,4.16,7.546,7.546,0,0,1-1.168,4.16,7.87,7.87,0,0,1-3.12,2.816A9.19,9.19,0,0,1,96.992.448Zm.032-3.168a4.059,4.059,0,0,0,3.088-1.312,4.889,4.889,0,0,0,1.232-3.488,4.889,4.889,0,0,0-1.232-3.488,4.059,4.059,0,0,0-3.088-1.312,4.1,4.1,0,0,0-3.12,1.312A4.889,4.889,0,0,0,92.672-7.52,4.889,4.889,0,0,0,93.9-4.032,4.1,4.1,0,0,0,97.024-2.72Zm30.5,2.368a5.934,5.934,0,0,1-2.688.64,4.008,4.008,0,0,1-2.624-.864,3.676,3.676,0,0,1-1.28-2.432A13.38,13.38,0,0,1,117.92-.432a5.955,5.955,0,0,1-3.072.848A4.871,4.871,0,0,1,110.8-1.376a8.3,8.3,0,0,1-1.424-5.248V-11.9h-2.784v-3.168h6.784v8.384a4.083,4.083,0,0,0,.672,2.5,2.66,2.66,0,0,0,2.272.9q2.112,0,4.544-2.688V-11.9h-2.528v-3.168h6.528V-4.256q0,1.216.928,1.216a2.317,2.317,0,0,0,.9-.16Zm16.928-15.1v6.72H140.96v-2.752a4.4,4.4,0,0,0-2.224.816,13.144,13.144,0,0,0-2.64,2.288v5.216h3.232V0H128.9V-3.168h3.2V-11.9h-3.2v-3.168h7.2v3.52a14.492,14.492,0,0,1,3.376-2.848,6.639,6.639,0,0,1,3.376-1.056Zm24.64,12.288V0h-9.376V-3.168h2.624V-8.384a3.475,3.475,0,0,0-.816-2.432,2.979,2.979,0,0,0-2.32-.9q-2.432,0-5.248,3.2v5.344h2.592V0h-9.792V-3.168h3.2V-11.9h-3.2v-3.168h7.2v3.456a14.547,14.547,0,0,1,3.312-2.9,6.543,6.543,0,0,1,3.408-.944,5.107,5.107,0,0,1,4.208,1.792,8.163,8.163,0,0,1,1.456,5.248v5.248ZM188.544-.416a4.13,4.13,0,0,1-1.184.48,6.463,6.463,0,0,1-1.632.192A3.435,3.435,0,0,1,183.6-.432a3.541,3.541,0,0,1-1.264-1.936A9.545,9.545,0,0,1,176.064.448a5.666,5.666,0,0,1-3.712-1.232,4.309,4.309,0,0,1-1.5-3.536,4.349,4.349,0,0,1,.9-2.752A5.568,5.568,0,0,1,174.1-8.816a8.119,8.119,0,0,1,3.088-.592,11.154,11.154,0,0,1,2.56.272,14.991,14.991,0,0,1,2.368.784V-9.536a2.107,2.107,0,0,0-1.04-1.92,5.031,5.031,0,0,0-2.672-.64,16.832,16.832,0,0,0-5.824,1.312l-.8-3.04a18.577,18.577,0,0,1,7.168-1.632,7.5,7.5,0,0,1,5.168,1.616,5.68,5.68,0,0,1,1.808,4.464V-4.32q0,1.248.928,1.248a2.259,2.259,0,0,0,.9-.192ZM174.816-4.544a1.409,1.409,0,0,0,.672,1.264,3.017,3.017,0,0,0,1.664.432,6.364,6.364,0,0,0,2.24-.512,11.657,11.657,0,0,0,2.72-1.568v-.864a11.693,11.693,0,0,0-4.16-.736A4.854,4.854,0,0,0,175.728-6,1.575,1.575,0,0,0,174.816-4.544Zm24.9,1.376V0H189.28V-3.168h3.2V-18.784h-3.2v-3.168h7.2V-3.168ZM220.384-.352a5.683,5.683,0,0,1-1.2.448A5.75,5.75,0,0,1,217.7.288,3.958,3.958,0,0,1,215.52-.3a3.508,3.508,0,0,1-1.376-1.712A8.45,8.45,0,0,1,208.416.448,7.1,7.1,0,0,1,204.752-.56a7.5,7.5,0,0,1-2.736-2.8,7.981,7.981,0,0,1-1.024-4.032,8.362,8.362,0,0,1,1.04-4.16,7.507,7.507,0,0,1,2.848-2.9,7.971,7.971,0,0,1,4.048-1.04,7.277,7.277,0,0,1,4.9,1.888v-5.184h-3.168v-3.168h7.1v17.7q0,1.216.9,1.216a2.333,2.333,0,0,0,.928-.192Zm-15.232-7.04A4.54,4.54,0,0,0,206.32-4.16a4.07,4.07,0,0,0,3.12,1.248,7.4,7.4,0,0,0,4.384-1.92v-5.76a6.5,6.5,0,0,0-3.9-1.536,4.685,4.685,0,0,0-3.44,1.312A4.6,4.6,0,0,0,205.152-7.392Zm32.7,5.088A11,11,0,0,1,230.464.448a10.035,10.035,0,0,1-4.208-.9,7.737,7.737,0,0,1-3.184-2.624A6.988,6.988,0,0,1,221.856-7.2a7.838,7.838,0,0,1,1.216-4.368,8.225,8.225,0,0,1,3.232-2.9,9.339,9.339,0,0,1,4.288-1.024,9.637,9.637,0,0,1,3.536.608,5.67,5.67,0,0,1,2.432,1.712,3.966,3.966,0,0,1,.88,2.544,3.715,3.715,0,0,1-.88,2.48,5.29,5.29,0,0,1-2.3,1.552,8.965,8.965,0,0,1-3.056.512,11.8,11.8,0,0,1-2.832-.32,18.29,18.29,0,0,1-2.672-.9,4.041,4.041,0,0,0,1.44,3.216,5.28,5.28,0,0,0,3.488,1.168,8.624,8.624,0,0,0,5.568-2.016ZM230.88-12.352a5.2,5.2,0,0,0-2.736.784,5.165,5.165,0,0,0-1.968,2.1,12.068,12.068,0,0,0,4.064.7,5.082,5.082,0,0,0,2.32-.512,1.479,1.479,0,0,0,.88-1.344,1.453,1.453,0,0,0-.7-1.248A3.237,3.237,0,0,0,230.88-12.352Zm19.968-3.136A6.364,6.364,0,0,1,254.3-14.48a7.281,7.281,0,0,1,2.56,2.816,8.5,8.5,0,0,1,.96,4.048,8.3,8.3,0,0,1-1.04,4.128,7.474,7.474,0,0,1-2.864,2.9,8.059,8.059,0,0,1-4.064,1.04,7.528,7.528,0,0,1-5.44-2.432L243.264,0h-2.3V-18.784h-2.848v-3.168H244.9v9.76a9.916,9.916,0,0,1,2.8-2.416A6.325,6.325,0,0,1,250.848-15.488ZM248.9-2.912a4.631,4.631,0,0,0,3.424-1.312,4.631,4.631,0,0,0,1.312-3.424,4.669,4.669,0,0,0-1.12-3.216,3.744,3.744,0,0,0-2.944-1.264,4.433,4.433,0,0,0-2.368.768,9.347,9.347,0,0,0-2.3,2.144v4.7A6.544,6.544,0,0,0,248.9-2.912ZM268.48.448a9.122,9.122,0,0,1-4.192-.992,7.987,7.987,0,0,1-3.136-2.816,7.471,7.471,0,0,1-1.184-4.16,7.471,7.471,0,0,1,1.184-4.16,7.987,7.987,0,0,1,3.136-2.816,9.122,9.122,0,0,1,4.192-.992,9.087,9.087,0,0,1,4.144.992,8.077,8.077,0,0,1,3.168,2.816,7.4,7.4,0,0,1,1.2,4.16,7.547,7.547,0,0,1-1.168,4.16A7.87,7.87,0,0,1,272.7-.544,9.19,9.19,0,0,1,268.48.448Zm.032-3.168A4.059,4.059,0,0,0,271.6-4.032a4.889,4.889,0,0,0,1.232-3.488,4.889,4.889,0,0,0-1.232-3.488,4.059,4.059,0,0,0-3.088-1.312,4.1,4.1,0,0,0-3.12,1.312A4.889,4.889,0,0,0,264.16-7.52a4.889,4.889,0,0,0,1.232,3.488A4.1,4.1,0,0,0,268.512-2.72Zm26.016-12.736v6.72H291.04v-2.752a4.4,4.4,0,0,0-2.224.816,13.143,13.143,0,0,0-2.64,2.288v5.216h3.232V0H278.976V-3.168h3.2V-11.9h-3.2v-3.168h7.2v3.52a14.492,14.492,0,0,1,3.376-2.848,6.639,6.639,0,0,1,3.376-1.056ZM315.84-.352a5.684,5.684,0,0,1-1.2.448,5.75,5.75,0,0,1-1.488.192A3.958,3.958,0,0,1,310.976-.3,3.508,3.508,0,0,1,309.6-2.016,8.45,8.45,0,0,1,303.872.448,7.1,7.1,0,0,1,300.208-.56a7.5,7.5,0,0,1-2.736-2.8,7.981,7.981,0,0,1-1.024-4.032,8.362,8.362,0,0,1,1.04-4.16,7.506,7.506,0,0,1,2.848-2.9,7.971,7.971,0,0,1,4.048-1.04,7.277,7.277,0,0,1,4.9,1.888v-5.184h-3.168v-3.168h7.1v17.7q0,1.216.9,1.216a2.333,2.333,0,0,0,.928-.192Zm-15.232-7.04a4.54,4.54,0,0,0,1.168,3.232,4.07,4.07,0,0,0,3.12,1.248,7.4,7.4,0,0,0,4.384-1.92v-5.76a6.5,6.5,0,0,0-3.9-1.536,4.685,4.685,0,0,0-3.44,1.312A4.6,4.6,0,0,0,300.608-7.392Z" transform="translate(-0.896 22.4)" fill="#333"/>
</svg>
