<svg xmlns="http://www.w3.org/2000/svg" width="417.718" height="66.169" viewBox="0 0 417.718 66.169">
  <g id="Group" transform="translate(-4.282 -20.736)">
    <path id="monjournaldebord" d="M-166.638-36.792a8.829,8.829,0,0,0-8.352,5.4c-.144.288-.288.36-.36.144-1.44-3.456-4.176-5.544-7.848-5.544a8.862,8.862,0,0,0-7.416,3.96c-.144.288-.36.216-.36-.072v-2.664a.68.68,0,0,0-.72-.72H-194a.68.68,0,0,0-.72.72V-.72A.68.68,0,0,0-194,0h2.3a.68.68,0,0,0,.72-.72V-24.768c0-5.4,2.592-8.64,6.624-8.64,3.6,0,6.192,3.312,6.192,8.784V-.72a.68.68,0,0,0,.72.72h2.376a.68.68,0,0,0,.72-.72V-24.768c0-5.4,2.52-8.64,6.552-8.64,3.672,0,6.192,3.312,6.192,8.784V-.72a.68.68,0,0,0,.72.72h2.376a.68.68,0,0,0,.72-.72V-24.984C-157.782-32.256-161.166-36.792-166.638-36.792ZM-142.274.576c6.552,0,10.8-4.392,10.8-10.728V-26.064c0-6.336-4.248-10.8-10.8-10.8-6.408,0-10.656,4.464-10.656,10.8v15.912C-152.93-3.816-148.682.576-142.274.576Zm0-3.384c-4.032,0-6.84-3.1-6.84-7.56v-15.48c0-4.536,2.808-7.632,6.84-7.632,4.1,0,6.984,3.1,6.984,7.632v15.48C-135.29-5.9-138.17-2.808-142.274-2.808Zm27.82-33.984a8.619,8.619,0,0,0-7.632,4.032c-.144.288-.36.288-.36,0v-2.808a.68.68,0,0,0-.72-.72h-2.376a.68.68,0,0,0-.72.72V-.72a.68.68,0,0,0,.72.72h2.376a.68.68,0,0,0,.72-.72V-24.768c0-5.4,2.592-8.64,6.84-8.64,4.1,0,6.48,3.024,6.48,8.208V-.72a.68.68,0,0,0,.72.72h2.376a.68.68,0,0,0,.72-.72V-25.56C-105.31-32.616-108.622-36.792-114.454-36.792ZM-97.29-42.12a4.348,4.348,0,0,0,4.464-4.608,4.5,4.5,0,0,0-4.464-4.536,4.476,4.476,0,0,0-4.32,4.536A4.318,4.318,0,0,0-97.29-42.12ZM-106.578,14.9c11.16.072,12.744-4.824,12.744-12.888V-35.928a.68.68,0,0,0-.72-.72h-5.472a.68.68,0,0,0-.72.72V2.016c0,4.176-1.584,6.84-5.832,6.912a.68.68,0,0,0-.72.72v4.536A.68.68,0,0,0-106.578,14.9ZM-78.254.576c7.56,0,12.168-4.464,12.168-11.376V-25.776c0-6.768-4.608-11.448-12.168-11.448-7.488,0-12.168,4.68-12.168,11.448V-10.8C-90.422-3.888-85.742.576-78.254.576Zm0-6.048c-3.1,0-5.256-2.376-5.256-5.832v-14.04c0-3.456,2.16-5.9,5.256-5.9S-73-28.8-73-25.344V-11.3C-73-7.848-75.158-5.472-78.254-5.472Zm32.14-30.456V-12.1c0,4.1-1.872,6.624-5.112,6.624-3.168,0-4.9-2.016-4.9-6.192V-35.928a.68.68,0,0,0-.72-.72h-5.472a.68.68,0,0,0-.72.72v25.776C-63.034-2.592-58.786.5-53.386.5c2.88,0,5.328-.864,6.912-3.384.144-.216.36-.216.36.072V-.72a.68.68,0,0,0,.72.72h5.472a.68.68,0,0,0,.72-.72V-35.928a.68.68,0,0,0-.72-.72h-5.472A.68.68,0,0,0-46.114-35.928Zm24.868-1.08c-3.456,0-5.472,2.232-6.7,5.328-.072.288-.288.216-.288-.072v-4.176a.68.68,0,0,0-.72-.72h-5.472a.68.68,0,0,0-.72.72V-.72a.68.68,0,0,0,.72.72h5.472a.68.68,0,0,0,.72-.72V-21.744c0-4.176,2.16-7.56,5.184-7.92a6.174,6.174,0,0,1,3.312.288c.5.144.792.072.864-.432l1.08-5.472a.822.822,0,0,0-.36-.936A5.709,5.709,0,0,0-21.246-37.008Zm19.108-.144A9.054,9.054,0,0,0-9.41-33.984c-.216.216-.432.144-.432-.072v-1.872a.68.68,0,0,0-.72-.72h-5.472a.68.68,0,0,0-.72.72V-.72a.68.68,0,0,0,.72.72h5.472a.68.68,0,0,0,.72-.72V-24.552c0-4.176,1.944-6.624,5.256-6.624,3.1,0,4.9,2.3,4.9,6.336V-.72A.68.68,0,0,0,1.03,0H6.5a.68.68,0,0,0,.72-.72v-24.7C7.222-32.832,3.91-37.152-2.138-37.152Zm24.652-.072c-6.552,0-11.376,4.176-11.88,10.368a.68.68,0,0,0,.72.72h5.832a.646.646,0,0,0,.72-.72,4.563,4.563,0,0,1,4.464-4.392c3.024,0,5.184,2.664,5.184,6.7v2.088a.31.31,0,0,1-.288.288H23.09c-7.488,0-13.68,3.168-13.68,12.1,0,9,6.264,10.656,10.368,10.656,3.024,0,5.616-.864,7.416-3.024.216-.216.36-.072.36.144V-.72a.68.68,0,0,0,.72.72h5.472a.68.68,0,0,0,.72-.72V-25.2C34.466-32.472,29.5-37.224,22.514-37.224ZM21.29-5.472c-2.664,0-4.752-1.512-4.752-5.184,0-4.1,2.664-6.048,6.336-6.048h4.392a.31.31,0,0,1,.288.288v4.9C27.554-7.488,24.386-5.472,21.29-5.472ZM38.238,0H43.71a.68.68,0,0,0,.72-.72V-49.68a.68.68,0,0,0-.72-.72H38.238a.68.68,0,0,0-.72.72V-.72A.68.68,0,0,0,38.238,0ZM65.7-49.68v16.488c0,.288-.216.36-.36.072a8.309,8.309,0,0,0-7.272-3.744c-5.832,0-9.576,4.464-9.72,10.656,0,2.664-.072,5.256-.072,7.92s.072,5.4.072,8.136C48.49-3.888,52.234.576,58.066.576a8.309,8.309,0,0,0,7.272-3.744c.144-.288.36-.216.36.072V-.72a.68.68,0,0,0,.72.72h2.376a.68.68,0,0,0,.72-.72V-49.68a.68.68,0,0,0-.72-.72H66.418A.68.68,0,0,0,65.7-49.68ZM59-2.808c-4.1,0-6.912-3.168-6.912-7.776V-25.7c0-4.608,2.88-7.776,6.912-7.776,3.96,0,6.7,3.168,6.7,7.776v15.12C65.7-5.976,62.962-2.808,59-2.808ZM96.182-17.5v-8.568c0-6.336-4.248-10.8-10.728-10.8-6.408,0-10.656,4.464-10.656,10.8v15.912C74.8-3.816,79.046.576,85.454.576c5.688,0,9.5-3.312,10.44-8.5v-.288c.072-.36-.288-.576-.648-.576l-2.3-.144c-.432,0-.648.216-.792.648a6.729,6.729,0,0,1-6.7,5.472c-4.032,0-6.84-3.1-6.84-7.56v-6.12a.31.31,0,0,1,.288-.288h16.56A.68.68,0,0,0,96.182-17.5ZM85.454-33.48c4.1,0,6.912,3.1,6.912,7.632v5.472a.31.31,0,0,1-.288.288H78.9a.31.31,0,0,1-.288-.288v-5.472C78.614-30.384,81.422-33.48,85.454-33.48Zm28.612-3.672a9.028,9.028,0,0,0-6.84,2.952c-.216.288-.432.216-.432,0V-49.68a.68.68,0,0,0-.72-.72H100.6a.68.68,0,0,0-.72.72V-.72a.68.68,0,0,0,.72.72h5.472a.68.68,0,0,0,.72-.72V-2.376c0-.216.144-.36.36-.144a9.244,9.244,0,0,0,6.912,3.1c6.408,0,10.008-4.536,10.008-11.376V-25.776C124.074-32.9,120.33-37.152,114.066-37.152Zm3.1,11.808v14.112c0,3.456-2.088,5.832-5.184,5.832s-5.112-2.376-5.112-5.832V-25.344c0-3.456,2.016-5.9,5.112-5.9S117.162-28.8,117.162-25.344ZM138.934.576c7.56,0,12.168-4.464,12.168-11.376V-25.776c0-6.768-4.608-11.448-12.168-11.448-7.488,0-12.168,4.68-12.168,11.448V-10.8C126.766-3.888,131.446.576,138.934.576Zm0-6.048c-3.1,0-5.256-2.376-5.256-5.832v-14.04c0-3.456,2.16-5.9,5.256-5.9s5.256,2.448,5.256,5.9V-11.3C144.19-7.848,142.03-5.472,138.934-5.472Zm29.4-31.536c-3.456,0-5.472,2.232-6.7,5.328-.072.288-.288.216-.288-.072v-4.176a.68.68,0,0,0-.72-.72h-5.472a.68.68,0,0,0-.72.72V-.72a.68.68,0,0,0,.72.72h5.472a.68.68,0,0,0,.72-.72V-21.744c0-4.176,2.16-7.56,5.184-7.92a6.174,6.174,0,0,1,3.312.288c.5.144.792.072.864-.432l1.08-5.472a.822.822,0,0,0-.36-.936A5.709,5.709,0,0,0,168.338-37.008ZM188.886-49.68V-34.2c0,.216-.144.36-.36.144a8.992,8.992,0,0,0-6.912-3.1c-6.264,0-10.008,4.248-10.008,11.376V-10.8c0,6.84,3.6,11.376,10.008,11.376a9.244,9.244,0,0,0,6.912-3.1c.216-.216.36-.072.36.144V-.72a.68.68,0,0,0,.72.72h5.472a.68.68,0,0,0,.72-.72V-49.68a.68.68,0,0,0-.72-.72h-5.472A.68.68,0,0,0,188.886-49.68Zm-.072,24.336v14.112c0,3.456-2.016,5.832-5.112,5.832s-5.184-2.376-5.184-5.832V-25.344c0-3.456,2.088-5.9,5.184-5.9S188.814-28.8,188.814-25.344Z" transform="translate(199 72)"/>
    <circle id="Oval" cx="7" cy="7" r="7" transform="translate(408 45)" fill="#9d00e0"/>
  </g>
</svg>
