<svg xmlns="http://www.w3.org/2000/svg" width="417.718" height="66.169"><g transform="translate(-4.282 -20.736)"><path d="M32.362 35.208a8.829 8.829 0 00-8.352 5.4c-.144.288-.288.36-.36.144-1.44-3.456-4.176-5.544-7.848-5.544a8.862 8.862 0 00-7.416 3.96c-.144.288-.36.216-.36-.072v-2.664a.68.68 0 00-.72-.72H5a.68.68 0 00-.72.72V71.28A.68.68 0 005 72h2.3a.68.68 0 00.72-.72V47.232c0-5.4 2.592-8.64 6.624-8.64 3.6 0 6.192 3.312 6.192 8.784V71.28a.68.68 0 00.72.72h2.376a.68.68 0 00.72-.72V47.232c0-5.4 2.52-8.64 6.552-8.64 3.672 0 6.192 3.312 6.192 8.784V71.28a.68.68 0 00.72.72h2.376a.68.68 0 00.72-.72V47.016c.006-7.272-3.378-11.808-8.85-11.808zm24.364 37.368c6.552 0 10.8-4.392 10.8-10.728V45.936c0-6.336-4.248-10.8-10.8-10.8-6.408 0-10.656 4.464-10.656 10.8v15.912c0 6.336 4.248 10.728 10.656 10.728zm0-3.384c-4.032 0-6.84-3.1-6.84-7.56v-15.48c0-4.536 2.808-7.632 6.84-7.632 4.1 0 6.984 3.1 6.984 7.632v15.48c0 4.468-2.88 7.56-6.984 7.56zm27.82-33.984a8.619 8.619 0 00-7.632 4.032c-.144.288-.36.288-.36 0v-2.808a.68.68 0 00-.72-.72h-2.376a.68.68 0 00-.72.72V71.28a.68.68 0 00.72.72h2.376a.68.68 0 00.72-.72V47.232c0-5.4 2.592-8.64 6.84-8.64 4.1 0 6.48 3.024 6.48 8.208v24.48a.68.68 0 00.72.72h2.376a.68.68 0 00.72-.72V46.44c0-7.056-3.312-11.232-9.144-11.232zm17.164-5.328a4.348 4.348 0 004.464-4.608 4.5 4.5 0 00-4.464-4.536 4.476 4.476 0 00-4.32 4.536 4.318 4.318 0 004.32 4.608zM92.422 86.9c11.16.072 12.744-4.824 12.744-12.888v-37.94a.68.68 0 00-.72-.72h-5.472a.68.68 0 00-.72.72v37.944c0 4.176-1.584 6.84-5.832 6.912a.68.68 0 00-.72.72v4.536a.68.68 0 00.72.716zm28.324-14.324c7.56 0 12.168-4.464 12.168-11.376V46.224c0-6.768-4.608-11.448-12.168-11.448-7.488 0-12.168 4.68-12.168 11.448V61.2c0 6.912 4.68 11.376 12.168 11.376zm0-6.048c-3.1 0-5.256-2.376-5.256-5.832v-14.04c0-3.456 2.16-5.9 5.256-5.9S126 43.2 126 46.656V60.7c0 3.452-2.158 5.828-5.254 5.828zm32.14-30.456V59.9c0 4.1-1.872 6.624-5.112 6.624-3.168 0-4.9-2.016-4.9-6.192v-24.26a.68.68 0 00-.72-.72h-5.472a.68.68 0 00-.72.72v25.776c.004 7.56 4.252 10.652 9.652 10.652 2.88 0 5.328-.864 6.912-3.384.144-.216.36-.216.36.072v2.092a.68.68 0 00.72.72h5.472a.68.68 0 00.72-.72V36.072a.68.68 0 00-.72-.72h-5.472a.68.68 0 00-.72.72zm24.868-1.08c-3.456 0-5.472 2.232-6.7 5.328-.072.288-.288.216-.288-.072v-4.176a.68.68 0 00-.72-.72h-5.472a.68.68 0 00-.72.72V71.28a.68.68 0 00.72.72h5.472a.68.68 0 00.72-.72V50.256c0-4.176 2.16-7.56 5.184-7.92a6.174 6.174 0 013.312.288c.5.144.792.072.864-.432l1.08-5.472a.822.822 0 00-.36-.936 5.709 5.709 0 00-3.092-.792zm19.108-.144a9.054 9.054 0 00-7.272 3.168c-.216.216-.432.144-.432-.072v-1.872a.68.68 0 00-.72-.72h-5.472a.68.68 0 00-.72.72V71.28a.68.68 0 00.72.72h5.472a.68.68 0 00.72-.72V47.448c0-4.176 1.944-6.624 5.256-6.624 3.1 0 4.9 2.3 4.9 6.336v24.12a.68.68 0 00.716.72h5.47a.68.68 0 00.72-.72v-24.7c.002-7.412-3.31-11.732-9.358-11.732zm24.652-.072c-6.552 0-11.376 4.176-11.88 10.368a.68.68 0 00.72.72h5.832a.646.646 0 00.72-.72 4.563 4.563 0 014.464-4.392c3.024 0 5.184 2.664 5.184 6.7v2.088a.31.31 0 01-.288.288h-4.176c-7.488 0-13.68 3.168-13.68 12.1 0 9 6.264 10.656 10.368 10.656 3.024 0 5.616-.864 7.416-3.024.216-.216.36-.072.36.144v1.576a.68.68 0 00.72.72h5.472a.68.68 0 00.72-.72V46.8c0-7.272-4.966-12.024-11.952-12.024zm-1.224 31.752c-2.664 0-4.752-1.512-4.752-5.184 0-4.1 2.664-6.048 6.336-6.048h4.392a.31.31 0 01.288.288v4.9c0 4.028-3.168 6.044-6.264 6.044zM237.238 72h5.472a.68.68 0 00.72-.72V22.32a.68.68 0 00-.72-.72h-5.472a.68.68 0 00-.72.72v48.96a.68.68 0 00.72.72zM264.7 22.32v16.488c0 .288-.216.36-.36.072a8.309 8.309 0 00-7.272-3.744c-5.832 0-9.576 4.464-9.72 10.656 0 2.664-.072 5.256-.072 7.92s.072 5.4.072 8.136c.142 6.264 3.886 10.728 9.718 10.728a8.309 8.309 0 007.272-3.744c.144-.288.36-.216.36.072v2.376a.68.68 0 00.72.72h2.376a.68.68 0 00.72-.72V22.32a.68.68 0 00-.72-.72h-2.376a.68.68 0 00-.718.72zM258 69.192c-4.1 0-6.912-3.168-6.912-7.776V46.3c0-4.608 2.88-7.776 6.912-7.776 3.96 0 6.7 3.168 6.7 7.776v15.12c0 4.604-2.738 7.772-6.7 7.772zM295.182 54.5v-8.568c0-6.336-4.248-10.8-10.728-10.8-6.408 0-10.656 4.464-10.656 10.8v15.912c.002 6.34 4.248 10.732 10.656 10.732 5.688 0 9.5-3.312 10.44-8.5v-.288c.072-.36-.288-.576-.648-.576l-2.3-.144c-.432 0-.648.216-.792.648a6.729 6.729 0 01-6.7 5.472c-4.032 0-6.84-3.1-6.84-7.56v-6.12a.31.31 0 01.288-.288h16.56a.68.68 0 00.72-.72zm-10.728-15.98c4.1 0 6.912 3.1 6.912 7.632v5.472a.31.31 0 01-.288.288H277.9a.31.31 0 01-.288-.288v-5.472c.002-4.536 2.81-7.632 6.842-7.632zm28.612-3.672a9.028 9.028 0 00-6.84 2.952c-.216.288-.432.216-.432 0V22.32a.68.68 0 00-.72-.72H299.6a.68.68 0 00-.72.72v48.96a.68.68 0 00.72.72h5.472a.68.68 0 00.72-.72v-1.656c0-.216.144-.36.36-.144a9.244 9.244 0 006.912 3.1c6.408 0 10.008-4.536 10.008-11.376v-14.98c.002-7.124-3.742-11.376-10.006-11.376zm3.1 11.808v14.112c0 3.456-2.088 5.832-5.184 5.832s-5.112-2.376-5.112-5.832V46.656c0-3.456 2.016-5.9 5.112-5.9s5.18 2.444 5.18 5.9zm21.768 25.92c7.56 0 12.168-4.464 12.168-11.376V46.224c0-6.768-4.608-11.448-12.168-11.448-7.488 0-12.168 4.68-12.168 11.448V61.2c0 6.912 4.68 11.376 12.168 11.376zm0-6.048c-3.1 0-5.256-2.376-5.256-5.832v-14.04c0-3.456 2.16-5.9 5.256-5.9s5.256 2.448 5.256 5.9V60.7c0 3.452-2.16 5.828-5.256 5.828zm29.4-31.536c-3.456 0-5.472 2.232-6.7 5.328-.072.288-.288.216-.288-.072v-4.176a.68.68 0 00-.72-.72h-5.472a.68.68 0 00-.72.72V71.28a.68.68 0 00.72.72h5.472a.68.68 0 00.72-.72V50.256c0-4.176 2.16-7.56 5.184-7.92a6.174 6.174 0 013.312.288c.5.144.792.072.864-.432l1.08-5.472a.822.822 0 00-.36-.936 5.709 5.709 0 00-3.088-.792zm20.552-12.672V37.8c0 .216-.144.36-.36.144a8.992 8.992 0 00-6.912-3.1c-6.264 0-10.008 4.248-10.008 11.376V61.2c0 6.84 3.6 11.376 10.008 11.376a9.244 9.244 0 006.912-3.1c.216-.216.36-.072.36.144v1.66a.68.68 0 00.72.72h5.472a.68.68 0 00.72-.72V22.32a.68.68 0 00-.72-.72h-5.472a.68.68 0 00-.72.72zm-.072 24.336v14.112c0 3.456-2.016 5.832-5.112 5.832s-5.184-2.376-5.184-5.832V46.656c0-3.456 2.088-5.9 5.184-5.9s5.112 2.444 5.112 5.9z"/><circle cx="7" cy="7" r="7" transform="translate(408 45)" fill="#9d00e0"/></g></svg>