<svg xmlns="http://www.w3.org/2000/svg" width="170.498" height="19.15" viewBox="0 0 170.498 19.15">
  <path id="Path_1" data-name="Path 1" d="M3.984-9.648l-3.516.41v.352l.547.166c.547.176.615.3.615.859v6.455c0,.684-.166.859-1.162,1.025V0h4.6V-.381C4.131-.527,4-.693,4-1.348v-6.24A2.128,2.128,0,0,1,5.957-8.652c1.23,0,1.914.752,1.914,2.266v5.039c0,.654-.117.82-1.064.967V0h4.512V-.381c-.947-.146-1.064-.312-1.064-.967v-5.5a4.151,4.151,0,0,0-.078-.811,2.2,2.2,0,0,1,1.982-1c1.24,0,1.943.752,1.943,2.266v5.039c0,.654-.117.811-1.064.967V0h4.6V-.381c-1-.166-1.162-.342-1.162-1.025V-6.7A2.816,2.816,0,0,0,13.32-9.717,3.512,3.512,0,0,0,10.1-7.92a2.8,2.8,0,0,0-2.949-1.8A3.393,3.393,0,0,0,3.984-7.939ZM23.818.186a4.894,4.894,0,0,0,5.088-4.98,4.787,4.787,0,0,0-5.029-4.922,4.875,4.875,0,0,0-5.088,4.971A4.784,4.784,0,0,0,23.818.186Zm.059-.537c-1.523,0-2.529-1.768-2.529-4.5,0-2.646.9-4.336,2.461-4.336,1.523,0,2.529,1.768,2.529,4.5C26.338-2.041,25.439-.352,23.877-.352Zm9.8-9.3-3.516.41v.352l.547.166c.547.176.615.3.615.859v6.455c0,.684-.166.859-1.162,1.025V0h4.6V-.381C33.828-.537,33.7-.693,33.7-1.348v-6.24a2.254,2.254,0,0,1,2.021-1.064c1.3,0,2.041.742,2.041,2.266v5.039c0,.654-.127.82-1.064.967V0h4.6V-.381c-1.016-.166-1.152-.342-1.152-1.025v-5.3c0-2.031-1.338-3.008-3.262-3.008a3.459,3.459,0,0,0-3.2,1.777ZM44.2-11.309A1.211,1.211,0,0,0,45.43-12.5a1.2,1.2,0,0,0-1.23-1.182A1.2,1.2,0,0,0,42.979-12.5,1.2,1.2,0,0,0,44.2-11.309Zm1.377,1.66-3.535.41v.352l.547.166c.537.176.615.3.615.859v6.543c0,2.959-.391,4.3-1.924,5.635l.234.322.605-.41c2.607-1.719,3.457-2.842,3.457-5.957ZM52.832.186a4.894,4.894,0,0,0,5.088-4.98,4.787,4.787,0,0,0-5.029-4.922A4.875,4.875,0,0,0,47.8-4.746,4.784,4.784,0,0,0,52.832.186Zm.059-.537c-1.523,0-2.529-1.768-2.529-4.5,0-2.646.9-4.336,2.461-4.336,1.523,0,2.529,1.768,2.529,4.5C55.352-2.041,54.453-.352,52.891-.352Zm9.629-9.3-3.535.41v.352l.547.166c.527.176.605.3.605.859v5C60.137-.8,61.445.186,63.33.186A3.412,3.412,0,0,0,66.5-1.6V.1L70.02-.3V-.654l-.547-.156c-.537-.186-.615-.3-.615-.869V-9.648l-3.535.41v.352l.557.166c.537.176.605.3.605.859v5.918A2.192,2.192,0,0,1,64.531-.879c-1.3,0-2.012-.762-2.012-2.3Zm11.885,0-3.516.41v.352l.547.166c.537.176.615.3.615.859v6.484c0,.664-.146.84-1.162,1V0H75.7V-.381c-1.133-.166-1.279-.352-1.279-1.1V-7.041a3.773,3.773,0,0,1,2.471-.781,4.27,4.27,0,0,1,1.113.137,1.654,1.654,0,0,0,.205-.82,1.048,1.048,0,0,0-1.084-1.172c-.869,0-1.67.752-2.725,2.344Zm8.135,0-3.516.41v.352l.547.166c.547.176.615.3.615.859v6.455c0,.684-.166.859-1.162,1.025V0h4.6V-.381c-.937-.156-1.064-.312-1.064-.967v-6.24A2.254,2.254,0,0,1,84.58-8.652c1.3,0,2.041.742,2.041,2.266v5.039c0,.654-.127.82-1.064.967V0h4.6V-.381C89.141-.547,89-.723,89-1.406v-5.3c0-2.031-1.338-3.008-3.262-3.008a3.459,3.459,0,0,0-3.2,1.777ZM94.053.186a3.33,3.33,0,0,0,3.086-1.523A1.888,1.888,0,0,0,99.18.137,3.094,3.094,0,0,0,100.84-.3V-.654a1.657,1.657,0,0,1-.41.059c-.576,0-1.016-.352-1.016-1.2V-6.67c0-2.109-1.5-3.047-3.867-3.047-2.314,0-3.936.967-3.936,2.227a1.128,1.128,0,0,0,1.152,1.113A1.116,1.116,0,0,0,93.916-7.49a1.1,1.1,0,0,0-1.035-1.123,3.405,3.405,0,0,1,1.807-.479c1.484,0,2.422.693,2.422,2.529v1.006l-2,.43c-2.744.576-3.828,1.494-3.828,2.959C91.279-.762,92.441.186,94.053.186Zm-.4-2.754c0-1.172.605-1.895,2.529-2.334l.928-.2v3.408a1.93,1.93,0,0,1-1.758.908A1.644,1.644,0,0,1,93.652-2.568Zm11.289-11.943-3.535.41v.352l.547.166c.547.186.615.3.615.859V-1.406c0,.684-.166.859-1.162,1.025V0h4.7V-.381c-.986-.166-1.162-.342-1.162-1.025Zm2.373,9.824c0,3.105,1.826,4.873,3.936,4.873A3.388,3.388,0,0,0,114.4-1.641V.1l3.516-.4V-.645l-.547-.166c-.547-.186-.615-.312-.615-.869V-14.5l-3.545.4v.352l.557.166c.537.186.605.3.605.859v4.209a2.851,2.851,0,0,0-2.529-1.2C109.346-9.717,107.314-7.773,107.314-4.687Zm2.451-.244c0-2.52,1.113-4.092,2.754-4.092A2.042,2.042,0,0,1,114.375-8v6.016a2.128,2.128,0,0,1-1.982,1.1C110.869-.879,109.766-2.432,109.766-4.932Zm9.355.166A4.682,4.682,0,0,0,123.955.186a4.323,4.323,0,0,0,3.672-1.611l-.01-.381a3.265,3.265,0,0,1-2.393.928c-2.1,0-3.545-1.689-3.691-4.307h6.221a4.225,4.225,0,0,0,.049-.566,3.735,3.735,0,0,0-4.033-3.965C120.938-9.717,119.121-7.637,119.121-4.766Zm4.639-4.424c1.25,0,1.855,1.25,1.855,3,0,.205-.01.371-.02.518l-4.072.039C121.523-7.91,122.354-9.189,123.76-9.189Zm15.615,4.336c0-3.105-1.826-4.863-3.936-4.863a3.378,3.378,0,0,0-3.145,1.8l.01-6.592-3.535.41v.352l.557.166c.537.186.6.3.6.859V0h1.084l1.084-1.211A2.978,2.978,0,0,0,134.8.176C137.324.176,139.375-1.758,139.375-4.854Zm-2.451.254c0,2.51-1.113,4.082-2.773,4.082A2.075,2.075,0,0,1,132.3-1.553V-7.568a2.134,2.134,0,0,1,1.982-1.084C135.82-8.652,136.924-7.119,136.924-4.6ZM146.006.186a4.894,4.894,0,0,0,5.088-4.98,4.787,4.787,0,0,0-5.029-4.922,4.875,4.875,0,0,0-5.088,4.971A4.784,4.784,0,0,0,146.006.186Zm.059-.537c-1.523,0-2.529-1.768-2.529-4.5,0-2.646.9-4.336,2.461-4.336,1.523,0,2.529,1.768,2.529,4.5C148.525-2.041,147.627-.352,146.064-.352Zm9.8-9.3-3.516.41v.352l.547.166c.537.176.615.3.615.859v6.484c0,.664-.146.84-1.162,1V0h4.814V-.381c-1.133-.166-1.279-.352-1.279-1.1V-7.041a3.773,3.773,0,0,1,2.471-.781,4.27,4.27,0,0,1,1.113.137,1.654,1.654,0,0,0,.205-.82,1.048,1.048,0,0,0-1.084-1.172c-.869,0-1.67.752-2.725,2.344Zm4.492,4.961c0,3.105,1.826,4.873,3.936,4.873a3.388,3.388,0,0,0,3.154-1.826V.1l3.516-.4V-.645l-.547-.166c-.547-.186-.615-.312-.615-.869V-14.5l-3.545.4v.352l.557.166c.537.186.605.3.605.859v4.209a2.851,2.851,0,0,0-2.529-1.2C162.393-9.717,160.361-7.773,160.361-4.687Zm2.451-.244c0-2.52,1.113-4.092,2.754-4.092A2.042,2.042,0,0,1,167.422-8v6.016a2.128,2.128,0,0,1-1.982,1.1C163.916-.879,162.813-2.432,162.813-4.932Z" transform="translate(-0.469 14.512)" fill="#333"/>
</svg>
